<mxfile host="app.diagrams.net" agent="Mozilla/5.0 (Macintosh; Intel Mac OS X 10_15_7) AppleWebKit/537.36 (KHTML, like Gecko) Chrome/136.0.0.0 Safari/537.36" version="27.1.4">
  <diagram name="GISСервіс" id="0">
    <mxGraphModel dx="1351" dy="871" grid="1" gridSize="10" guides="1" tooltips="1" connect="1" arrows="1" fold="1" page="1" pageScale="1" pageWidth="827" pageHeight="1169" math="0" shadow="0">
      <root>
        <mxCell id="0" />
        <mxCell id="1" parent="0" />
        <mxCell id="start" value="(*)" style="ellipse;whiteSpace=wrap;html=1;fillColor=#FFFFFF;" parent="1" vertex="1">
          <mxGeometry x="40" y="100" width="40" height="40" as="geometry" />
        </mxCell>
        <mxCell id="Ініціалізація" value="Ініціалізація OnEntry / завантажити_модуль() Do / перевірка_з&#39;єднання() OnExit / готовність := true" style="rounded=1;whiteSpace=wrap;html=1;fillColor=#DAE8FC;" parent="1" vertex="1">
          <mxGeometry x="114" y="20" width="300" height="100" as="geometry" />
        </mxCell>
        <mxCell id="ОчікуванняЗапиту" value="ОчікуванняЗапиту Do / слухати_запити() OnEvent невалідний_запит() / лог_помилки()" style="rounded=1;whiteSpace=wrap;html=1;fillColor=#E1D5E7;" parent="1" vertex="1">
          <mxGeometry x="280" y="170" width="300" height="120" as="geometry" />
        </mxCell>
        <mxCell id="ОбробкаЗапиту" value="ОбробкаЗапиту Do / обробити_координати() OnExit / записати_в_кеш()" style="rounded=1;whiteSpace=wrap;html=1;fillColor=#FFE6CC;" parent="1" vertex="1">
          <mxGeometry x="630" y="110" width="300" height="100" as="geometry" />
        </mxCell>
        <mxCell id="НадсиланняРезультату" value="НадсиланняРезультату Do / відправити_відповідь() OnExit / оновити_лог()" style="rounded=1;whiteSpace=wrap;html=1;fillColor=#D5E8D4;" parent="1" vertex="1">
          <mxGeometry x="941" width="300" height="100" as="geometry" />
        </mxCell>
        <mxCell id="end" value="(*)" style="ellipse;whiteSpace=wrap;html=1;fillColor=#FFFFFF;" parent="1" vertex="1">
          <mxGeometry x="910" y="210" width="40" height="40" as="geometry" />
        </mxCell>
        <mxCell id="e1" value="" style="edgeStyle=orthogonalEdgeStyle;endArrow=block;" parent="1" source="start" target="Ініціалізація" edge="1">
          <mxGeometry relative="1" as="geometry" />
        </mxCell>
        <mxCell id="e2" value="готово()" style="edgeStyle=orthogonalEdgeStyle;endArrow=block;" parent="1" source="Ініціалізація" target="ОчікуванняЗапиту" edge="1">
          <mxGeometry relative="1" as="geometry" />
        </mxCell>
        <mxCell id="e3" value="запит_прийнято()" style="edgeStyle=orthogonalEdgeStyle;endArrow=block;" parent="1" source="ОчікуванняЗапиту" target="ОбробкаЗапиту" edge="1">
          <mxGeometry relative="1" as="geometry" />
        </mxCell>
        <mxCell id="e4" value="обробка_завершена()" style="edgeStyle=orthogonalEdgeStyle;endArrow=block;" parent="1" source="ОбробкаЗапиту" target="НадсиланняРезультату" edge="1">
          <mxGeometry relative="1" as="geometry" />
        </mxCell>
        <mxCell id="e5" value="" style="edgeStyle=orthogonalEdgeStyle;endArrow=block;" parent="1" source="НадсиланняРезультату" target="ОчікуванняЗапиту" edge="1">
          <mxGeometry relative="1" as="geometry" />
        </mxCell>
        <mxCell id="e6" value="вимкнення()" style="edgeStyle=orthogonalEdgeStyle;endArrow=block;" parent="1" source="ОчікуванняЗапиту" target="end" edge="1">
          <mxGeometry relative="1" as="geometry" />
        </mxCell>
      </root>
    </mxGraphModel>
  </diagram>
</mxfile>
